<svg xmlns="http://www.w3.org/2000/svg" width="40px" height="40px" fill="none" viewBox="0 0 24 24">
  <path fill="#0F0F0F" d="M23 12c0 .354-.017.705-.05 1.051a7.014 7.014 0 0 0-1.963-1.383 8.993 8.993 0 1 0-9.32 9.32 7.014 7.014 0 0 0 1.384 1.962c-.346.033-.697.05-1.051.05-6.075 0-11-4.925-11-11S5.925 1 12 1s11 4.925 11 11Z"/>
  <path fill="#0F0F0F" d="m13 11.881.843.487a7.04 7.04 0 0 0-1.466 1.463l-.86-.496a.996.996 0 0 1-.39-.412C11 12.728 11 12.468 11 12.468V6a1 1 0 1 1 2 0v5.881ZM15.293 17.707a1 1 0 0 1 1.414 0l.641.641 1.9-1.899a1 1 0 0 1 1.413 1.414l-2.54 2.54a.996.996 0 0 1-.29.202 1 1 0 0 1-1.21-.156l-1.328-1.328a1 1 0 0 1 0-1.414Z"/>
  <path fill="#0F0F0F" fill-rule="evenodd" d="M18 24a6 6 0 1 0 0-12 6 6 0 0 0 0 12Zm0-1.982a4.018 4.018 0 1 1 0-8.036 4.018 4.018 0 0 1 0 8.036Z" clip-rule="evenodd"/>
</svg>