<svg xmlns="http://www.w3.org/2000/svg" xml:space="preserve" width="300" height="300" fill="#E3C6B8" stroke="#675341" stroke-width="1" viewBox="0 0 338.839 338.839">
  <path  d="M31.298 167.121c-.396 0-.794-.031-1.19-.095-10.249-1.646-18.106-6.24-23.355-13.652-9.292-13.121-6.335-30.19-6.205-30.91a7.495 7.495 0 0 1 2.805-4.606c37.783-29.085 94.051-56.636 143.35-70.188 16.661-4.581 33.463-6.903 49.938-6.903 44.968 0 80.703 17.34 102.762 31.886 22.04 14.534 35.014 29.018 37.318 31.685a7.5 7.5 0 0 1-5.336 12.724c-1.496-.015-3.032-.426-4.352-1.345-15.626-10.881-63.811-22.532-110.634-22.532-16.412 0-31.659 1.373-45.317 4.079-39.271 7.782-134.81 68.086-135.77 68.695a7.526 7.526 0 0 1-4.014 1.162zm-16.254-39.31c-.221 3.92-.002 11.366 3.996 16.957 2.446 3.42 5.997 5.694 10.806 6.908 16.038-10.025 99.631-61.461 138.32-69.127 14.617-2.896 30.845-4.365 48.233-4.365 28.41 0 56.075 3.836 78.226 9.341a193.244 193.244 0 0 0-3.907-2.63c-20.267-13.288-53.039-29.127-94.077-29.127-15.132 0-30.596 2.142-45.962 6.366-46.479 12.775-99.316 38.399-135.635 65.677zM297.127 181.567a7.5 7.5 0 0 0-9.096 3.292c-8.732 15.157-15.476 22.529-21.866 23.905-2.635.566-5.646.176-9.079-1.171 3.5-6.88 5.472-15.027 5.87-24.388a7.5 7.5 0 0 0-7.175-7.812c-4.143-.187-7.636 3.036-7.812 7.175-.283 6.645-1.545 12.376-3.763 17.16-4.46-3.196-10.609-7.18-18.347-11.2 2.444-5.725 3.835-12.188 4.14-19.36a7.5 7.5 0 0 0-7.175-7.811c-4.153-.196-7.636 3.037-7.812 7.175-.218 5.123-1.159 9.692-2.806 13.687a168.214 168.214 0 0 0-23.473-7.639c1.332-4.295 2.116-8.894 2.324-13.785a7.501 7.501 0 0 0-7.175-7.812c-4.142-.194-7.636 3.037-7.812 7.175-.182 4.283-.977 8.078-2.234 11.452-11.97-1.831-25.146-2.548-39.437-1.498-74.859 5.509-97.549 43.615-109.844 80.196a.155.155 0 0 1-.008.023l-.027.081.002.003a7.497 7.497 0 0 0 1.068 6.829c1.226 1.667 30.803 40.825 96.82 40.828h.008c4.538 0 9.208-.191 13.881-.568 68.569-5.526 93.506-33.003 101.751-46.609 9.958 3.65 19.412 3.385 28.186-.813 26.532-12.693 35.303-58.173 35.664-60.103a7.494 7.494 0 0 0-4.773-8.412zm-115.314 6.781a153.329 153.329 0 0 1 20.803 6.19c-11.236 8.283-26.776 8.208-29.792 8.106-1.756-.46-3.511-.894-5.264-1.289 5.798-3.632 10.562-7.988 14.253-13.007zm-48.612 94.356c-19.274 0-34.954-15.681-34.954-34.955 0-19.273 15.68-34.954 34.954-34.954s34.954 15.68 34.954 34.954-15.68 34.955-34.954 34.955zm2.302-97.632c10.125-.745 19.627-.522 28.475.386-10.665 9.012-25.663 11.675-33.473 12.462-1.971.083-3.921.208-5.852.374l-.043.003c-28.645 2.453-52.797 13.714-71.924 27.038 13.827-20.737 37.232-36.908 82.817-40.263zM90.602 221.72a49.585 49.585 0 0 0-7.355 26.029c0 12.528 4.656 23.974 12.305 32.749-28.834-5.765-46.083-19.798-53.542-27.289 12.417-11.539 28.772-23.58 48.592-31.489zm122.012 35.426c-7.532 6.128-19.54 13.285-38.065 18.589a49.622 49.622 0 0 0 8.607-27.986 49.67 49.67 0 0 0-9.516-29.294c16.918 5.034 34.072 13.408 51.325 25.101-2.144 3.432-5.956 8.386-12.351 13.59zm-2.032-39.673a201.86 201.86 0 0 0-9.898-4.836c4.864-2.005 9.734-4.779 14.09-8.659a44.245 44.245 0 0 0 2.873-2.82c7.057 3.583 12.73 7.171 16.913 10.113-9.05 6.193-20.286 6.344-23.978 6.202zm49.184 19.079c-6.26 2.995-13.238 2.374-21.318-1.886a263.203 263.203 0 0 0-7.47-5.123c5.284-1.743 10.798-4.472 15.77-8.735.367-.314.714-.646 1.068-.971 7.729 3.842 14.829 5.027 21.506 3.591a27.084 27.084 0 0 0 4.906-1.562c-3.931 6.459-8.744 11.95-14.462 14.686z"/>
  <path d="M133.202 272.02c-13.383 0-24.271-10.888-24.271-24.271 0-13.383 10.888-24.271 24.271-24.271 13.383 0 24.271 10.888 24.271 24.271-.001 13.384-10.888 24.271-24.271 24.271zm0-33.541c-5.112 0-9.271 4.159-9.271 9.271s4.159 9.271 9.271 9.271c5.112 0 9.271-4.159 9.271-9.271s-4.159-9.271-9.271-9.271z"/>
</svg>