<?xml version="1.0" encoding="iso-8859-1"?>
<!-- Uploaded to: SVG Repo, www.svgrepo.com, Generator: SVG Repo Mixer Tools -->
<svg fill="#645648" height="30px" width="30px" version="1.1" id="Layer_1" xmlns="http://www.w3.org/2000/svg" xmlns:xlink="http://www.w3.org/1999/xlink" 
	 viewBox="0 0 512 512" xml:space="preserve">
<g>
	<g>
		<g>
			<path d="M152.439,341.333c0.759,2.748,1.161,5.598,1.161,8.533c0,2.935-0.401,5.786-1.161,8.533h207.121
				c-0.759-2.748-1.161-5.598-1.161-8.533c0-2.935,0.401-5.786,1.161-8.533H152.439z"/>
			<path d="M418.133,324.267c-16.614,0-31.241,6.093-38.238,14.643c-0.529,0.64-1.024,1.28-1.451,1.929
				c-0.751,1.143-1.408,2.313-1.869,3.524c-0.145,0.358-0.222,0.717-0.341,1.075c-0.444,1.451-0.768,2.918-0.768,4.429
				c0,1.51,0.324,2.978,0.768,4.429c0.119,0.358,0.196,0.717,0.341,1.075c0.461,1.203,1.118,2.372,1.86,3.516
				c0.444,0.657,0.939,1.306,1.468,1.954c7.006,8.542,21.623,14.626,38.229,14.626c23.125,0,42.667-11.725,42.667-25.6
				C460.8,335.991,441.259,324.267,418.133,324.267z"/>
			<path d="M135.425,344.364c-0.461-1.212-1.118-2.372-1.86-3.516c-0.444-0.657-0.939-1.306-1.468-1.954
				c-7.006-8.542-21.623-14.626-38.229-14.626c-23.134,0-42.667,11.725-42.667,25.6c0,13.875,19.533,25.6,42.667,25.6
				c16.614,0,31.241-6.093,38.238-14.643c0.529-0.64,1.015-1.28,1.451-1.929c0.751-1.143,1.408-2.313,1.869-3.524
				c0.145-0.358,0.222-0.717,0.341-1.075c0.435-1.451,0.768-2.918,0.768-4.429c0-1.51-0.333-2.987-0.768-4.429
				C135.647,345.081,135.57,344.723,135.425,344.364z"/>
			<path d="M488.269,85.333H23.731C10.65,85.333,0,95.983,0,109.065v293.871c0,13.082,10.65,23.731,23.731,23.731h464.538
				c13.082,0,23.731-10.65,23.731-23.731V109.065C512,95.983,501.35,85.333,488.269,85.333z M315.511,121.737
				c3.686-2.935,9.054-2.338,11.989,1.357c2.935,3.686,2.321,9.054-1.357,11.989c-17.468,13.901-27.477,34.611-27.477,56.815
				c0,40.055,32.58,72.636,72.627,72.636s72.627-32.58,72.627-72.636c0-22.204-10.01-42.914-27.469-56.815
				c-3.686-2.935-4.292-8.303-1.357-11.989c2.918-3.686,8.277-4.301,11.989-1.357c21.547,17.152,33.903,42.726,33.903,70.161
				c0,49.459-40.226,89.702-89.694,89.702c-49.459,0-89.694-40.243-89.694-89.702C281.6,164.463,293.956,138.889,315.511,121.737z
				 M84.915,121.737c3.678-2.927,9.054-2.338,11.989,1.357c2.935,3.686,2.33,9.054-1.357,11.989
				c-17.468,13.909-27.477,34.62-27.477,56.815c0,40.055,32.58,72.636,72.636,72.636c40.047,0,72.627-32.58,72.627-72.636
				c0-22.204-10.01-42.914-27.477-56.815c-3.678-2.935-4.292-8.303-1.357-11.989c2.935-3.695,8.303-4.292,11.989-1.357
				c21.555,17.152,33.911,42.726,33.911,70.161c0,49.459-40.235,89.702-89.694,89.702c-49.468,0-89.702-40.243-89.702-89.702
				C51.004,164.463,63.36,138.889,84.915,121.737z M418.133,392.533c-19.925,0-37.222-6.664-48.017-17.067H141.884
				c-10.795,10.402-28.092,17.067-48.017,17.067c-33.493,0-59.733-18.739-59.733-42.667c0-23.927,26.24-42.667,59.733-42.667
				c19.925,0,37.222,6.665,48.017,17.067h228.233c10.795-10.402,28.092-17.067,48.017-17.067c33.493,0,59.733,18.739,59.733,42.667
				C477.867,373.794,451.627,392.533,418.133,392.533z"/>
		</g>
	</g>
</g>
</svg>