
<?xml version="1.0" encoding="utf-8"?>
<svg xmlns="http://www.w3.org/2000/svg" xml:space="preserve" width="30" height="30" viewBox="0 0 512 512">
  <path d="M367.382 212.985a31.918 31.918 0 0 0-16.174-8.713v-33.175a23.201 23.201 0 0 0-10.237-19.255 23.208 23.208 0 0 0-12.989-3.971h-10.061v-34.844h15.484V0h-97.55v39.256h-23.708c-5.431 0-10.71.738-15.724 1.958-8.777 2.158-16.848 5.76-24.094 9.836-10.855 6.114-19.912 13.334-26.419 19.079-6.498 5.744-10.398 10.012-10.662 10.318l17.185 15.596 3.418 3.145.016-.016c.345-.37 8.208-8.809 19.279-16.833 5.608-4.076 12.018-8.022 18.469-10.823 3.224-1.388 6.466-2.502 9.571-3.265 3.129-.739 6.138-1.132 8.961-1.132h23.708v45.908h15.484v34.844h-10.053c-3.185 0-6.266.642-9.05 1.829a23.288 23.288 0 0 0-10.213 8.408 23.121 23.121 0 0 0-3.971 12.989v33.175a31.925 31.925 0 0 0-16.175 8.713 31.953 31.953 0 0 0-9.371 22.64v244.363a31.947 31.947 0 0 0 9.371 22.64 31.95 31.95 0 0 0 22.641 9.371h120.231a31.93 31.93 0 0 0 22.633-9.371 31.949 31.949 0 0 0 9.371-22.64V235.625a31.947 31.947 0 0 0-9.371-22.64zM255.984 67.12V20.13h57.292v72.768h-57.292V67.12zm41.807 45.907v34.507h-26.323v-34.507h26.323zm-59.61 58.07c0-.457.088-.842.24-1.203a3.177 3.177 0 0 1 1.131-1.372 3.008 3.008 0 0 1 1.733-.53h86.696c.457 0 .834.096 1.203.249.546.216 1.035.634 1.372 1.132.337.505.514 1.05.522 1.724v32.509h-92.897v-32.509zm118.45 308.891c0 1.668-.337 3.209-.93 4.621a11.927 11.927 0 0 1-4.316 5.239 11.935 11.935 0 0 1-6.635 2.029H224.518c-1.67-.016-3.21-.337-4.621-.938a11.95 11.95 0 0 1-5.239-4.308 11.797 11.797 0 0 1-2.03-6.643V235.625c.008-1.668.337-3.209.931-4.628a12.007 12.007 0 0 1 4.316-5.239 11.728 11.728 0 0 1 6.643-2.022h120.231c1.661 0 3.201.337 4.621.93a11.96 11.96 0 0 1 5.231 4.316 11.797 11.797 0 0 1 2.03 6.643v244.363z" style="fill:#645648"/>
</svg>