
<?xml version="1.0" encoding="iso-8859-1"?>
<svg xmlns="http://www.w3.org/2000/svg" xml:space="preserve" width="30" height="30" fill="#645648" viewBox="0 0 512 512">
  <path d="M152.439 341.333a31.947 31.947 0 0 1 0 17.066H359.56a31.947 31.947 0 0 1 0-17.066H152.439zM418.133 324.267c-16.614 0-31.241 6.093-38.238 14.643-.529.64-1.024 1.28-1.451 1.929-.751 1.143-1.408 2.313-1.869 3.524-.145.358-.222.717-.341 1.075-.444 1.451-.768 2.918-.768 4.429 0 1.51.324 2.978.768 4.429.119.358.196.717.341 1.075.461 1.203 1.118 2.372 1.86 3.516.444.657.939 1.306 1.468 1.954 7.006 8.542 21.623 14.626 38.229 14.626 23.125 0 42.667-11.725 42.667-25.6.001-13.876-19.54-25.6-42.666-25.6zM135.425 344.364c-.461-1.212-1.118-2.372-1.86-3.516a27.148 27.148 0 0 0-1.468-1.954c-7.006-8.542-21.623-14.626-38.229-14.626-23.134 0-42.667 11.725-42.667 25.6 0 13.875 19.533 25.6 42.667 25.6 16.614 0 31.241-6.093 38.238-14.643.529-.64 1.015-1.28 1.451-1.929.751-1.143 1.408-2.313 1.869-3.524.145-.358.222-.717.341-1.075.435-1.451.768-2.918.768-4.429 0-1.51-.333-2.987-.768-4.429-.12-.358-.197-.716-.342-1.075z"/>
  <path d="M488.269 85.333H23.731C10.65 85.333 0 95.983 0 109.065v293.871c0 13.082 10.65 23.731 23.731 23.731h464.538c13.082 0 23.731-10.65 23.731-23.731V109.065c0-13.082-10.65-23.732-23.731-23.732zm-172.758 36.404c3.686-2.935 9.054-2.338 11.989 1.357 2.935 3.686 2.321 9.054-1.357 11.989-17.468 13.901-27.477 34.611-27.477 56.815 0 40.055 32.58 72.636 72.627 72.636s72.627-32.58 72.627-72.636c0-22.204-10.01-42.914-27.469-56.815-3.686-2.935-4.292-8.303-1.357-11.989 2.918-3.686 8.277-4.301 11.989-1.357 21.547 17.152 33.903 42.726 33.903 70.161 0 49.459-40.226 89.702-89.694 89.702-49.459 0-89.694-40.243-89.694-89.702.002-27.435 12.358-53.009 33.913-70.161zm-230.596 0c3.678-2.927 9.054-2.338 11.989 1.357 2.935 3.686 2.33 9.054-1.357 11.989-17.468 13.909-27.477 34.62-27.477 56.815 0 40.055 32.58 72.636 72.636 72.636 40.047 0 72.627-32.58 72.627-72.636 0-22.204-10.01-42.914-27.477-56.815-3.678-2.935-4.292-8.303-1.357-11.989 2.935-3.695 8.303-4.292 11.989-1.357 21.555 17.152 33.911 42.726 33.911 70.161 0 49.459-40.235 89.702-89.694 89.702-49.468 0-89.702-40.243-89.702-89.702.001-27.435 12.357-53.009 33.912-70.161zm333.218 270.796c-19.925 0-37.222-6.664-48.017-17.067H141.884c-10.795 10.402-28.092 17.067-48.017 17.067-33.493 0-59.733-18.739-59.733-42.667 0-23.927 26.24-42.667 59.733-42.667 19.925 0 37.222 6.665 48.017 17.067h228.233c10.795-10.402 28.092-17.067 48.017-17.067 33.493 0 59.733 18.739 59.733 42.667s-26.24 42.667-59.734 42.667z"/>
</svg>