
<?xml version="1.0" encoding="iso-8859-1"?>
<svg xmlns="http://www.w3.org/2000/svg" xml:space="preserve" width="30" height="30" fill="#645648" viewBox="0 0 318.589 318.589">
  <path d="M127.819 48.739c-2.242 0-4.062 1.967-4.062 4.401 0 2.428 1.82 4.401 4.062 4.401h25.044v7.444h-19.63c-2.242 0-4.062 1.973-4.062 4.401s1.82 4.401 4.062 4.401h19.63v7.443h-14.217c-2.242 0-4.062 1.973-4.062 4.401s1.82 4.401 4.062 4.401h14.217v7.443h-8.798c-2.242 0-4.062 1.968-4.062 4.401 0 2.429 1.82 4.401 4.062 4.401h8.798v49.866h-17.828c-5.981 0-10.828 4.841-10.828 10.828v140.787c0 5.981 4.847 10.828 10.828 10.828h48.514c5.98 0 10.827-4.847 10.827-10.828V166.963c0-5.976-4.847-10.825-10.827-10.825h-17.823v-49.863h8.803c2.242 0 4.065-1.968 4.065-4.401 0-2.429-1.823-4.401-4.065-4.401h-8.803V90.03h14.214c2.248 0 4.065-1.973 4.065-4.401 0-2.429-1.817-4.401-4.065-4.401h-14.214v-7.444h19.63c2.242 0 4.061-1.973 4.061-4.401 0-2.429-1.818-4.401-4.061-4.401h-19.63v-7.444h25.047c2.237 0 4.06-1.968 4.06-4.401 0-2.429-1.822-4.401-4.06-4.401h-25.047V41.29h19.63c2.242 0 4.061-1.973 4.061-4.401s-1.818-4.401-4.061-4.401h-19.63V25.05h14.214c2.248 0 4.065-1.973 4.065-4.401s-1.817-4.401-4.065-4.401h-14.214V8.803h8.803c2.242 0 4.065-1.968 4.065-4.401 0-2.429-1.823-4.401-4.065-4.401h-30.463c-2.242 0-4.062 1.967-4.062 4.401 0 2.428 1.82 4.401 4.062 4.401h8.798v7.443h-14.217c-2.242 0-4.062 1.973-4.062 4.401s1.82 4.401 4.062 4.401h14.217v7.443h-19.63c-2.242 0-4.062 1.973-4.062 4.401 0 2.429 1.82 4.401 4.062 4.401h19.63v7.444h-25.045z"/>
</svg>