<svg xmlns="http://www.w3.org/2000/svg" width="35" height="35" fill="#675341" viewBox="0 0 24 24">
  <path d="M1.277 8.858c1.329 5.28 8.586 12.542 13.865 13.865a8.938 8.938 0 0 0 2.18.274 8.54 8.54 0 0 0 4.006-1 3.11 3.11 0 0 0 .764-4.951l-2.086-2.086a3.111 3.111 0 0 0-3.444-.651 4.859 4.859 0 0 0-1.471.987c-.178.177-.506.205-.977.077a9.981 9.981 0 0 1-5.488-5.487c-.126-.471-.1-.8.078-.977a4.864 4.864 0 0 0 .988-1.473 3.112 3.112 0 0 0-.651-3.442L6.955 1.909A3.065 3.065 0 0 0 4.3 1.035 3.1 3.1 0 0 0 2 2.672a8.58 8.58 0 0 0-.723 6.186ZM3.773 3.6a1.115 1.115 0 0 1 .827-.587A1.044 1.044 0 0 1 4.767 3a1.088 1.088 0 0 1 .774.323l2.085 2.085a1.1 1.1 0 0 1 .239 1.213 2.9 2.9 0 0 1-.575.879 2.817 2.817 0 0 0-.59 2.9c.722 2.7 4.205 6.179 6.9 6.9a2.821 2.821 0 0 0 2.907-.6 2.906 2.906 0 0 1 .874-.576 1.1 1.1 0 0 1 1.214.239l2.085 2.085a1.089 1.089 0 0 1 .31.942 1.114 1.114 0 0 1-.591.826 6.517 6.517 0 0 1-4.766.556C11.089 19.641 4.36 12.912 3.216 8.37a6.53 6.53 0 0 1 .557-4.77Z"/>
</svg>