<svg xmlns="http://www.w3.org/2000/svg" xml:space="preserve" width="40" height="40" fill="#675341" viewBox="0 0 512 512">
  <path d="M421.833 149.635C413.26 65.702 342.158 0 256 0S98.74 65.702 90.167 149.635h-54.31v17.067c0 115.645 89.633 210.747 203.076 219.486v34.79h-39.822c-40.779 0-73.956 33.176-73.956 73.956V512h261.689v-17.067c0-40.779-33.177-73.956-73.956-73.956h-39.822v-34.79c113.443-8.739 203.076-103.842 203.076-219.486v-17.067h-54.309zM70.766 183.768h19.399c8.001 78.321 70.448 140.767 148.768 148.768v19.391c-88.974-8.133-160.035-79.183-168.167-168.159zm242.123 271.343c15.855 0 29.574 9.313 35.977 22.756H163.135c6.402-13.443 20.123-22.756 35.977-22.756h113.777zM256 299.27c-73.099 0-132.568-59.469-132.568-132.568 0-73.098 59.469-132.568 132.568-132.568s132.568 59.47 132.568 132.568S329.099 299.27 256 299.27zm17.067 52.657v-19.391c78.32-8.001 140.767-70.447 148.767-148.767h19.399c-8.131 88.975-79.192 160.025-168.166 168.158z"/>
  <path d="m175.66 175.659 91.024-91.023 24.135 24.135-91.023 91.023zM243.93 198.42l45.511-45.512 24.135 24.136-45.511 45.512z"/>
</svg>