<svg width="300px" height="300px" xmlns="http://www.w3.org/2000/svg" viewBox="0 0 80.08 122.88" style="enable-background:new 0 0 80.08 122.88" xml:space="preserve" fill="#E3C6B8" stroke="#675341" stroke-width="0.5">
                        <path d="M70.04 95.5a1.496 1.496 0 0 1 2.99-.03c.02 1.49-.18 2.91-.55 4.26-.37 1.35-.91 2.63-1.59 3.85a1.494 1.494 0 0 1-2.61-1.45c.57-1.02 1.02-2.08 1.32-3.18.3-1.1.46-2.24.44-3.45zM25.69 74.87c1.01.48 1.72 1.63 1.72 2.97 0 1.77-1.23 3.21-2.75 3.21s-2.75-1.44-2.75-3.21c0-1.38.75-2.56 1.8-3.01l-.08.01c-2.28.21-4.36 1.26-6.23 3.18-.58.59-1.52.6-2.11.03-.59-.58-.6-1.52-.03-2.11 2.39-2.45 5.09-3.79 8.1-4.06 2.93-.27 6.1.5 9.5 2.28a1.489 1.489 0 1 1-1.38 2.64c-2.07-1.09-4-1.73-5.79-1.93zm26.14-.38c-1.01.48-1.72 1.63-1.72 2.97 0 1.77 1.23 3.21 2.75 3.21s2.75-1.43 2.75-3.21c0-1.38-.75-2.56-1.8-3.01l.08.01c2.28.21 4.35 1.26 6.23 3.18.58.59 1.52.6 2.11.03.59-.58.6-1.52.03-2.11-2.39-2.45-5.09-3.79-8.1-4.07-2.93-.27-6.1.5-9.5 2.28a1.489 1.489 0 1 0 1.38 2.64c2.07-1.08 4-1.72 5.79-1.92zM3.97 78.92c-.07-.11-.13-.23-.18-.36C1.87 72.75.52 67.04.12 61.49c-.41-5.61.16-11.03 2.07-16.2 2.44-6.57 7.39-12.73 13.48-17.4 1.69-1.3 3.47-2.48 5.31-3.53-2.7-4.25-3.37-8.16-2.61-11.57.65-2.9 2.33-5.39 4.67-7.38 2.26-1.92 5.15-3.39 8.32-4.3C38.21-.88 46.43-.33 52.39 3.59c2.34 1.54 4.5 3.35 6.05 5.55 1.61 2.29 2.56 4.97 2.39 8.15-.08 1.52-.44 3.02-1.06 4.52-.38.92-.85 1.83-1.41 2.74 6.56 3.55 12.3 8.65 16.02 14.5 3.24 5.11 5.15 10.96 5.59 17.63.43 6.59-.58 13.96-3.17 22.2-.14.45-.48.79-.89.95a9.325 9.325 0 0 1-.23 5.7 9.826 9.826 0 0 1-2.81 4.06c-1.94 1.66-4.57 2.59-7.48 2.26-.17.37-.34.74-.52 1.11-.76 1.57-1.65 3.13-2.63 4.66l.99 4.19 8.31 14.47c.04.08.08.16.11.25.52 1.48.32 2.85-.28 3.94-.39.71-.96 1.29-1.61 1.7-.66.42-1.43.67-2.2.7-1.14.06-2.29-.33-3.2-1.29-.03-.04-.06-.07-.09-.11l-9.99-12.91a.769.769 0 0 1-.18-.18l-.99-.68c-.33.25-.68.49-1.03.73-.58.4-1.16.76-1.72 1.08a21.22 21.22 0 0 1-3.2 1.48c-1.13.41-2.32.73-3.58.94-1.51.26-3.05.38-4.62.32-1.58-.05-3.17-.28-4.79-.71-.05-.01-.09-.03-.14-.04-7.93-2.95-14.03-8.38-18.17-16.34-.55-1.06-1.07-2.17-1.55-3.32-2.95.36-5.61-.57-7.57-2.25a9.734 9.734 0 0 1-2.81-4.06 9.325 9.325 0 0 1-.38-5.07c.08-.51.23-1.03.42-1.54zm24.38-57.86c2.52-.85 5.08-1.41 7.62-1.65l.71-.06c1.01-.08 2.01-.11 3.02-.1 4.04.05 8.06.83 12.05 2.35 1.34.47 2.65 1.01 3.95 1.61.54-.84.99-1.69 1.33-2.53.48-1.18.77-2.36.83-3.54.14-2.43-.6-4.49-1.85-6.26-1.31-1.86-3.19-3.43-5.24-4.78-5.2-3.42-12.46-3.88-18.56-2.11-2.77.8-5.28 2.07-7.22 3.72-1.86 1.58-3.19 3.52-3.69 5.75-.61 2.7 0 5.9 2.33 9.49 1.58-.74 3.15-1.37 4.72-1.89zM74.38 76.6c2.16-7.32 3-13.88 2.62-19.74-.4-6.14-2.15-11.52-5.13-16.21-3.6-5.67-9.28-10.59-15.74-13.91a1.4 1.4 0 0 1-.74-.18c-1.63-.88-3.26-1.62-4.88-2.24-4.47-1.55-9.11-2.3-13.55-2-2.79.22-5.59.83-8.4 1.82-3.87 1.4-7.65 3.51-11.06 6.12C11.84 34.61 7.25 40.3 5.01 46.34c-1.76 4.74-2.27 9.75-1.9 14.94C3.45 65.91 4.49 70.7 6 75.6c.92-1.06 2.11-2.05 3.58-2.94.09-.05.18-.1.27-.13a109 109 0 0 1-.36-5.94c-.74.16-1.48.31-2.23.45a1.49 1.49 0 1 1-.55-2.93c8.01-1.52 15.12-3.78 20.7-7.3 5.46-3.44 9.48-8.11 11.44-14.52.24-.79 1.08-1.23 1.87-.99.56.17.94.64 1.03 1.18 1.06 6.19 4.39 10.91 9.61 14.42 5.36 3.61 12.72 5.96 21.65 7.33.82.12 1.38.89 1.26 1.7-.12.82-.89 1.38-1.7 1.26-.92-.14-1.82-.29-2.71-.45-.04 2.02-.12 3.93-.24 5.76.14.04.27.09.4.17 1.92 1.16 3.36 2.51 4.36 3.93zm-7.5-10.46c-6.84-1.5-12.64-3.71-17.19-6.76-4.58-3.08-7.88-7-9.7-11.9-2.46 4.99-6.24 8.85-11 11.86-4.67 2.94-10.29 5.05-16.54 6.59.31 11.51 2.36 20.78 6.04 27.86 3.78 7.26 9.3 12.2 16.47 14.89 1.38.36 2.74.55 4.07.6 1.35.05 2.7-.06 4.04-.29 1.08-.18 2.09-.45 3.05-.8.96-.35 1.87-.77 2.74-1.27.53-.3 1.04-.62 1.53-.95l.09-.06-3.64-2.5c-1.62-1.11-2.6-2.23-2.95-3.67-.35-1.41-.04-2.94.93-4.87.97-1.93 2.63-3.6 4.68-4.71 1.93-1.05 4.23-1.61 6.61-1.46 4.16.27 4.25.7 4.94 3.79.02.1.05.21.18.76l.04.18c.33-.59.63-1.19.92-1.78.76-1.55 1.39-3.09 1.86-4.56.94-2.9 1.64-6.12 2.11-9.74.42-3.36.66-7.07.72-11.21zm-56.67 9.69c-2.23 1.59-3.4 3.43-3.76 5.23-.24 1.2-.13 2.39.26 3.47a6.68 6.68 0 0 0 1.95 2.8 6.718 6.718 0 0 0 4.52 1.61c-1.35-3.91-2.35-8.28-2.97-13.11zm59.12-.04c-.07.66-.14 1.3-.23 1.93-.49 3.83-1.23 7.22-2.22 10.28-.1.31-.21.62-.32.93a6.731 6.731 0 0 0 6.31-4.41c.39-1.08.51-2.27.26-3.47-.36-1.81-1.54-3.67-3.8-5.26zm-20.82 25.15 6.71 4.6 4.96-3.59-1.89-8.01-.18-.8c-.26-1.16-.29-1.33-2.21-1.45-1.8-.12-3.54.31-5.01 1.1-1.51.82-2.73 2.02-3.42 3.41-.63 1.27-.87 2.16-.7 2.82.16.63.75 1.23 1.74 1.92zm8.86 6.74 1.27 1.64 3.86-2.77-1.05-1.83-4.08 2.96zm3.1 4.01 6.1 7.88c.24.24.55.34.84.32.26-.01.52-.1.75-.25.24-.15.45-.37.6-.62.2-.36.27-.83.11-1.37l-4.88-8.49-3.52 2.53zm4.63-16.88a1.496 1.496 0 0 1 2.99-.03c.01 1.19-.14 2.33-.44 3.41s-.73 2.1-1.27 3.07a1.494 1.494 0 0 1-2.61-1.45c.43-.77.77-1.57 1-2.4.22-.83.34-1.69.33-2.6z" />
                    </svg>