<svg xmlns="http://www.w3.org/2000/svg" xml:space="preserve" width="35" height="35" fill="#675341" viewBox="0 0 512 512">
<path d="M437.019 74.98C388.667 26.628 324.381 0 256 0 187.62 0 123.333 26.628 74.98 74.98 26.628 123.333 0 187.62 0 256s26.628 132.667 74.98 181.02C123.333 485.372 187.62 512 256 512c68.381 0 132.667-26.628 181.019-74.98C485.372 388.667 512 324.38 512 256s-26.628-132.667-74.981-181.02zM256 491.602c-129.911 0-235.602-105.69-235.602-235.602S126.089 20.398 256 20.398 491.602 126.089 491.602 256 385.911 491.602 256 491.602z"/><path d="M256 48.514C141.591 48.514 48.514 141.591 48.514 256S141.591 463.486 256 463.486 463.487 370.409 463.487 256 370.409 48.514 256 48.514zm0 394.574c-103.161 0-187.088-83.927-187.088-187.088S152.839 68.912 256 68.912 443.089 152.839 443.089 256 359.161 443.088 256 443.088z"/><path d="M403.517 244.456c-5.632 0-10.199 4.566-10.199 10.199 0 4.857-.257 9.754-.763 14.552-.592 5.602 3.471 10.622 9.072 11.214.365.038.725.057 1.083.057 5.152 0 9.577-3.891 10.13-9.129.581-5.508.876-11.124.876-16.694 0-5.633-4.567-10.199-10.199-10.199zM346.558 245.801h-58.211c-3.322-10.512-11.635-18.826-22.148-22.148V95.367c0-5.633-4.567-10.199-10.199-10.199-5.633 0-10.199 4.566-10.199 10.199v128.286c-13.733 4.34-23.717 17.198-23.717 32.347 0 18.702 15.215 33.917 33.916 33.917 15.149 0 28.007-9.985 32.347-23.717h58.211c5.632 0 10.199-4.566 10.199-10.199 0-5.634-4.567-10.2-10.199-10.2zM256 269.518c-7.455 0-13.518-6.064-13.518-13.518s6.063-13.518 13.518-13.518 13.518 6.064 13.518 13.518-6.063 13.518-13.518 13.518z"/><path d="M396.577 300.608c-5.217-2.122-11.167.39-13.289 5.607-21.1 51.899-70.935 85.434-126.964 85.434-75.538 0-136.994-61.455-136.994-136.994 0-45.116 22.526-87.467 59.398-112.893l.373.881c3.246 7.671 13.579 8.951 18.598 2.304l14.187-18.786c5.019-6.646.963-16.233-7.303-17.258l-23.362-2.897c-8.266-1.025-14.542 7.283-11.296 14.954l.71 1.677c-20.48 13.322-37.714 31.3-50.112 52.406-14.126 24.046-21.593 51.575-21.593 79.612 0 86.786 70.606 157.392 157.392 157.392 31.924 0 62.666-9.508 88.901-27.495 25.608-17.558 45.305-41.99 56.958-70.655 2.125-5.218-.385-11.167-5.604-13.289z"/>
</svg>

